<?xml version="1.0" encoding="UTF-8"?>
<svg width="50px" height="50px" viewBox="0 0 50 50" version="1.1" xmlns="http://www.w3.org/2000/svg" xmlns:xlink="http://www.w3.org/1999/xlink">
    <!-- Generator: Sketch 46.2 (44496) - http://www.bohemiancoding.com/sketch -->
    <title>Shape</title>
    <desc>Created with Sketch.</desc>
    <defs></defs>
    <g id="Page-1" stroke="none" stroke-width="1" fill="none" fill-rule="evenodd">
        <g id="emoji-positive" fill-rule="nonzero" fill="#86BC57">
            <path d="M49.1,25 C49.1,38.3 38.3,49.1 25,49.1 C11.7,49.1 0.9,38.3 0.9,25 C0.9,11.7 11.7,0.9 25,0.9 C38.3,0.9 49.1,11.7 49.1,25 Z M17.3,14.8 C14.9,14.8 13,16.7 13,19.1 C13,21.5 14.9,23.4 17.3,23.4 C19.7,23.4 21.6,21.5 21.6,19.1 C21.6,16.7 19.7,14.8 17.3,14.8 Z M32.8,14.8 C30.4,14.8 28.5,16.7 28.5,19.1 C28.5,21.5 30.4,23.4 32.8,23.4 C35.2,23.4 37.1,21.5 37.1,19.1 C37.1,16.7 35.2,14.8 32.8,14.8 Z M32.6,31.5 C30.6,33.3 27.9,34.3 25,34.3 C22.2,34.3 19.6,33.3 17.5,31.6 L16.6,30.8 C16.3,30.6 16.1,30.5 15.5,30.5 C14.4,30.5 13.6,31.4 13.6,32.4 C13.6,32.9 13.8,33.4 14.2,33.8 L14.9,34.4 C17.6,36.8 21.2,38.2 25,38.2 C28.9,38.2 32.5,36.7 35.2,34.3 L35.7,33.8 C36.1,33.4 36.3,32.9 36.3,32.4 C36.3,31.3 35.4,30.5 34.4,30.5 C33.9,30.5 33.5,30.7 33.2,30.9 L32.6,31.5 L32.6,31.5 Z" id="Shape"></path>
        </g>
    </g>
</svg>