<?xml version="1.0" encoding="UTF-8"?>
<svg width="50px" height="50px" viewBox="0 0 50 50" version="1.1" xmlns="http://www.w3.org/2000/svg" xmlns:xlink="http://www.w3.org/1999/xlink">
    <!-- Generator: Sketch 46.2 (44496) - http://www.bohemiancoding.com/sketch -->
    <title>emoji-negative</title>
    <desc>Created with Sketch.</desc>
    <defs></defs>
    <g id="Page-1" stroke="none" stroke-width="1" fill="none" fill-rule="evenodd">
        <g id="emoji-negative" fill-rule="nonzero" fill="#C25454">
            <path d="M49.1,25 C49.1,38.3 38.3,49.1 25,49.1 C11.7,49.1 0.9,38.3 0.9,25 C0.9,11.7 11.7,0.9 25,0.9 C38.3,0.9 49.1,11.7 49.1,25 Z M17.3,14.8 C14.9,14.8 13,16.7 13,19.1 C13,21.5 14.9,23.4 17.3,23.4 C19.7,23.4 21.6,21.5 21.6,19.1 C21.6,16.7 19.7,14.8 17.3,14.8 Z M32.8,14.8 C30.4,14.8 28.5,16.7 28.5,19.1 C28.5,21.5 30.4,23.4 32.8,23.4 C35.2,23.4 37.1,21.5 37.1,19.1 C37.1,16.7 35.2,14.8 32.8,14.8 Z M17.3,37.2 C19.3,35.4 22,34.4 24.9,34.4 C27.7,34.4 30.3,35.4 32.4,37.1 L33.3,37.9 C33.6,38.1 33.8,38.2 34.4,38.2 C35.5,38.2 36.3,37.3 36.3,36.3 C36.3,35.8 36.1,35.3 35.7,34.9 L35,34.3 C32.3,31.9 28.7,30.5 24.9,30.5 C21,30.5 17.4,32 14.7,34.4 L14.2,34.9 C13.8,35.3 13.6,35.8 13.6,36.3 C13.6,37.4 14.5,38.2 15.5,38.2 C16,38.2 16.4,38 16.7,37.8 L17.3,37.2 L17.3,37.2 Z" id="Shape"></path>
        </g>
    </g>
</svg>