<?xml version="1.0" encoding="UTF-8"?>
<svg width="48px" height="48px" viewBox="0 0 48 48" version="1.1" xmlns="http://www.w3.org/2000/svg" xmlns:xlink="http://www.w3.org/1999/xlink">
    <!-- Generator: Sketch 46.2 (44496) - http://www.bohemiancoding.com/sketch -->
    <title>emoji-neutral</title>
    <desc>Created with Sketch.</desc>
    <defs></defs>
    <g id="Page-1" stroke="none" stroke-width="1" fill="none" fill-rule="evenodd">
        <g id="emoji-neutral" fill-rule="nonzero" fill="#00A1E0">
            <path d="M48,24 C48,37.2448133 37.2448133,48 24,48 C10.7551867,48 0,37.2448133 0,24 C0,10.7551867 10.7551867,0 24,0 C37.2448133,0 48,10.7551867 48,24 Z M12.6473029,32.879668 C12.6473029,33.9873232 13.5366007,34.8713693 14.6336052,34.8713693 L33.2668097,34.8713693 C34.3669375,34.8713693 35.253112,33.9796543 35.253112,32.879668 C35.253112,31.7720129 34.3638142,30.8879668 33.2668097,30.8879668 L14.6336052,30.8879668 C13.5334774,30.8879668 12.6473029,31.7796818 12.6473029,32.879668 Z M16.3319502,13.8423237 C13.9419087,13.8423237 12.0497925,15.7344398 12.0497925,18.1244813 C12.0497925,20.5145228 13.9419087,22.406639 16.3319502,22.406639 C18.7219917,22.406639 20.6141079,20.5145228 20.6141079,18.1244813 C20.6141079,15.7344398 18.7219917,13.8423237 16.3319502,13.8423237 Z M31.7676349,13.8423237 C29.3775934,13.8423237 27.4854772,15.7344398 27.4854772,18.1244813 C27.4854772,20.5145228 29.3775934,22.406639 31.7676349,22.406639 C34.1576763,22.406639 36.0497925,20.5145228 36.0497925,18.1244813 C36.0497925,15.7344398 34.1576763,13.8423237 31.7676349,13.8423237 Z" id="Shape"></path>
        </g>
    </g>
</svg>